<?xml version="1.0" encoding="UTF-8" standalone="no"?>
<!DOCTYPE svg PUBLIC "-//W3C//DTD SVG 20010904//EN"
              "http://www.w3.org/TR/2001/REC-SVG-20010904/DTD/svg10.dtd">

<svg xmlns="http://www.w3.org/2000/svg"
     width="1.89in" height="2.25in"
     viewBox="0 0 189 225">
   <style>
      path { fill: black; }
    @media (prefers-color-scheme: dark) {
      path { fill: white; }
    }
   </style>
  <path id="M"
        d="M 87.00,80.34
           C 87.00,57.34 83.00,51.00 70.59,51.00
             61.59,51.00 48.80,56.33 32.00,67.17
             32.00,67.17 32.00,168.00 32.00,168.00
             32.00,168.00 13.00,168.00 13.00,168.00
             13.00,168.00 13.00,59.19 13.00,59.19
             13.00,54.80 11.59,52.59 8.80,52.59
             6.80,52.59 4.80,53.19 2.80,54.59
             2.80,54.59 0.00,49.42 0.00,49.42
             0.00,49.42 27.55,36.20 27.55,36.20
             27.55,36.20 32.00,39.17 32.00,39.17
             32.00,39.17 32.00,56.59 32.00,56.59
             55.00,43.47 71.80,37.00 82.59,37.00
             94.80,37.00 101.98,43.86 104.19,57.59
             127.67,43.80 144.94,37.00 155.58,37.00
             171.80,37.00 180.00,51.31 180.00,79.94
             180.00,79.94 180.00,168.00 180.00,168.00
             180.00,168.00 161.00,168.00 161.00,168.00
             161.00,168.00 161.00,80.34 161.00,80.34
             161.00,64.17 158.59,54.80 153.77,52.39
             151.97,51.41 148.95,51.00 144.73,51.00
             135.70,51.00 122.66,56.39 105.59,67.38
             105.80,69.56 106.00,70.97 106.00,71.56
             106.00,71.56 106.00,168.00 106.00,168.00
             106.00,168.00 87.00,168.00 87.00,168.00
             87.00,168.00 87.00,80.34 87.00,80.34
             87.00,80.34 87.00,80.34 87.00,80.34 Z" />
</svg>
